<svg width="101" height="101" viewBox="0 0 101 101" fill="none" xmlns="http://www.w3.org/2000/svg">
<path d="M49.8542 0.813499C50.0851 0.561516 50.4823 0.561516 50.7131 0.813499L60.4567 11.4491C60.6096 11.616 60.8454 11.6792 61.0613 11.6111L74.8173 7.27219C75.1432 7.16939 75.4872 7.36798 75.5611 7.70163L78.6815 21.7841C78.7305 22.0051 78.9031 22.1777 79.1241 22.2267L93.2066 25.3471C93.5402 25.421 93.7388 25.765 93.636 26.0909L89.2971 39.8469C89.229 40.0628 89.2922 40.2986 89.4591 40.4515L100.095 50.1951C100.347 50.4259 100.347 50.8231 100.095 51.054L89.4591 60.7975C89.2922 60.9504 89.229 61.1862 89.2971 61.4021L93.636 75.1581C93.7388 75.484 93.5402 75.828 93.2066 75.9019L79.1241 79.0223C78.9031 79.0713 78.7305 79.2439 78.6815 79.4649L75.5611 93.5474C75.4872 93.881 75.1432 94.0796 74.8173 93.9768L61.0613 89.6379C60.8454 89.5698 60.6096 89.633 60.4567 89.7999L50.7131 100.436C50.4823 100.688 50.0851 100.688 49.8542 100.436L40.1107 89.7999C39.9578 89.633 39.722 89.5698 39.5061 89.6379L25.7501 93.9768C25.4242 94.0796 25.0802 93.881 25.0063 93.5474L21.8859 79.4649C21.8369 79.2439 21.6643 79.0713 21.4433 79.0223L7.36081 75.9019C7.02716 75.828 6.82857 75.484 6.93137 75.1581L11.2703 61.4021C11.3384 61.1862 11.2752 60.9504 11.1083 60.7975L0.472678 51.054C0.220696 50.8231 0.220696 50.4259 0.472679 50.1951L11.1083 40.4515C11.2752 40.2986 11.3384 40.0628 11.2703 39.8469L6.93137 26.0909C6.82857 25.765 7.02716 25.421 7.36081 25.3471L21.4433 22.2267C21.6643 22.1777 21.8369 22.0051 21.8859 21.7841L25.0063 7.70163C25.0802 7.36798 25.4242 7.16939 25.7501 7.27219L39.5061 11.6111C39.722 11.6792 39.9578 11.616 40.1107 11.4491L49.8542 0.813499Z" fill="#E44853"/>
<path fill-rule="evenodd" clip-rule="evenodd" d="M50.2837 1.78171L40.8264 12.1048C40.4186 12.5499 39.7898 12.7184 39.2141 12.5368L25.8623 8.32541L22.8336 21.9941C22.703 22.5835 22.2427 23.0438 21.6533 23.1744L7.98459 26.2031L12.196 39.5549C12.3776 40.1306 12.2091 40.7594 11.764 41.1672L1.44089 50.6245L11.764 60.0818C12.2091 60.4896 12.3776 61.1184 12.196 61.6941L7.98459 75.0459L21.6533 78.0746C22.2427 78.2052 22.703 78.6655 22.8336 79.2549L25.8623 92.9236L39.2141 88.7122C39.7898 88.5306 40.4186 88.6991 40.8264 89.1442L50.2837 99.4673L59.741 89.1442C60.1488 88.6991 60.7776 88.5306 61.3533 88.7122L74.7051 92.9236L77.7338 79.2549C77.8644 78.6655 78.3247 78.2052 78.9141 78.0746L92.5828 75.0459L88.3714 61.6941C88.1898 61.1184 88.3583 60.4896 88.8034 60.0818L99.1265 50.6245L88.8034 41.1672C88.3583 40.7594 88.1898 40.1306 88.3714 39.5549L92.5828 26.2031L78.9141 23.1744C78.3247 23.0438 77.8644 22.5835 77.7338 21.9941L74.7051 8.32541L61.3533 12.5368C60.7776 12.7184 60.1488 12.5499 59.741 12.1048L50.2837 1.78171ZM50.7131 0.813499C50.4823 0.561516 50.0851 0.561516 49.8542 0.813499L40.1107 11.4491C39.9578 11.616 39.722 11.6792 39.5061 11.6111L25.7501 7.27219C25.4242 7.16939 25.0802 7.36798 25.0063 7.70163L21.8859 21.7841C21.8369 22.0051 21.6643 22.1777 21.4433 22.2267L7.36081 25.3471C7.02716 25.421 6.82857 25.765 6.93137 26.0909L11.2703 39.8469C11.3384 40.0628 11.2752 40.2986 11.1083 40.4515L0.472679 50.1951C0.220696 50.4259 0.220696 50.8231 0.472678 51.054L11.1083 60.7975C11.2752 60.9504 11.3384 61.1862 11.2703 61.4021L6.93137 75.1581C6.82857 75.484 7.02716 75.828 7.36081 75.9019L21.4433 79.0223C21.6643 79.0713 21.8369 79.2439 21.8859 79.4649L25.0063 93.5474C25.0802 93.881 25.4242 94.0796 25.7501 93.9768L39.5061 89.6379C39.722 89.5698 39.9578 89.633 40.1107 89.7999L49.8542 100.436C50.0851 100.688 50.4823 100.688 50.7131 100.436L60.4567 89.7999C60.6096 89.633 60.8454 89.5698 61.0613 89.6379L74.8173 93.9768C75.1432 94.0796 75.4872 93.881 75.5611 93.5474L78.6815 79.4649C78.7305 79.2439 78.9031 79.0713 79.1241 79.0223L93.2066 75.9019C93.5402 75.828 93.7388 75.484 93.636 75.1581L89.2971 61.4021C89.229 61.1862 89.2922 60.9504 89.4591 60.7975L100.095 51.054C100.347 50.8231 100.347 50.4259 100.095 50.1951L89.4591 40.4515C89.2922 40.2986 89.229 40.0628 89.2971 39.8469L93.636 26.0909C93.7388 25.765 93.5402 25.421 93.2066 25.3471L79.1241 22.2267C78.9031 22.1777 78.7305 22.0051 78.6815 21.7841L75.5611 7.70163C75.4872 7.36798 75.1432 7.16939 74.8173 7.27219L61.0613 11.6111C60.8454 11.6792 60.6096 11.616 60.4567 11.4491L50.7131 0.813499Z" fill="white"/>
<path fill-rule="evenodd" clip-rule="evenodd" d="M50.2834 77.1292C65.2423 77.1292 77.3689 65.0026 77.3689 50.0436C77.3689 35.0847 65.2423 22.9581 50.2834 22.9581C35.3245 22.9581 23.1978 35.0847 23.1978 50.0436C23.1978 65.0026 35.3245 77.1292 50.2834 77.1292ZM50.2834 77.9999C65.7232 77.9999 78.2396 65.4835 78.2396 50.0436C78.2396 34.6038 65.7232 22.0874 50.2834 22.0874C34.8436 22.0874 22.3271 34.6038 22.3271 50.0436C22.3271 65.4835 34.8436 77.9999 50.2834 77.9999Z" fill="white"/>
<path fill-rule="evenodd" clip-rule="evenodd" d="M60.2909 43.5433C60.4066 43.643 60.4195 43.8176 60.3198 43.9333L48.196 58L40.2619 50.0659C40.1539 49.9579 40.1539 49.7828 40.2619 49.6748C40.3699 49.5668 40.545 49.5668 40.653 49.6748L48.1659 57.1877L59.9008 43.5722C60.0006 43.4565 60.1752 43.4436 60.2909 43.5433Z" fill="white"/>
<path fill-rule="evenodd" clip-rule="evenodd" d="M59.7493 43.4416C59.9212 43.2423 60.2221 43.2199 60.4214 43.3918C60.6208 43.5636 60.6431 43.8645 60.4713 44.0638L48.2069 58.2937L40.1205 50.2073C39.9344 50.0212 39.9344 49.7195 40.1205 49.5334C40.3066 49.3473 40.6083 49.3473 40.7944 49.5334L48.155 56.894L59.7493 43.4416ZM60.1603 43.6948C60.1283 43.6672 60.0799 43.6707 60.0523 43.7028L48.1768 57.4815L40.5116 49.8162C40.4817 49.7863 40.4332 49.7863 40.4033 49.8162C40.3734 49.8461 40.3734 49.8946 40.4033 49.9245L48.1851 57.7063L60.1683 43.8027C60.1959 43.7707 60.1923 43.7224 60.1603 43.6948Z" fill="white"/>
</svg>
