<svg width="86" height="101" viewBox="0 0 86 101" fill="none" xmlns="http://www.w3.org/2000/svg">
<path d="M0.443726 42.7602C0.443726 67.6092 28.8043 91.4959 42.9845 100.333C57.0417 92.1757 85.156 69.2407 85.156 42.7602C85.156 9.65956 55.5067 0.874603 41.5449 0.874603C27.583 0.874603 0.443726 11.699 0.443726 42.7602Z" fill="#E44853"/>
<path fill-rule="evenodd" clip-rule="evenodd" d="M42.7999 70.9589C57.7588 70.9589 69.8854 58.8323 69.8854 43.8733C69.8854 28.9144 57.7588 16.7878 42.7999 16.7878C27.8409 16.7878 15.7143 28.9144 15.7143 43.8733C15.7143 58.8323 27.8409 70.9589 42.7999 70.9589ZM42.7999 71.8296C58.2397 71.8296 70.7561 59.3131 70.7561 43.8733C70.7561 28.4335 58.2397 15.9171 42.7999 15.9171C27.3601 15.9171 14.8436 28.4335 14.8436 43.8733C14.8436 59.3131 27.3601 71.8296 42.7999 71.8296Z" fill="white"/>
<path fill-rule="evenodd" clip-rule="evenodd" d="M15.9113 10.3672C7.43727 16.9126 0.693585 27.3133 0.693585 42.7601C0.693585 55.0941 7.73607 67.2203 16.585 77.3869C25.3757 87.4868 35.9167 95.6152 42.989 100.041C49.9972 95.9541 60.4422 88.2314 69.1534 78.2534C77.9215 68.21 84.906 55.9131 84.906 42.7601C84.906 26.2985 77.5396 15.9012 68.4439 9.61015C59.3355 3.31036 48.4848 1.12446 41.5448 1.12446C34.6165 1.12446 24.3955 3.81383 15.9113 10.3672ZM15.6058 9.97157C24.1817 3.34741 34.5113 0.624603 41.5448 0.624603C48.5667 0.624603 59.5215 2.83119 68.7282 9.19904C77.9477 15.5756 85.4059 26.1212 85.4059 42.7601C85.4059 56.0877 78.3332 68.4985 69.5299 78.5821C60.7237 88.6691 50.1585 96.4589 43.1099 100.549L42.9799 100.625L42.8523 100.545C35.7447 96.1157 25.0895 87.9192 16.2079 77.7151C7.3315 67.5168 0.193726 55.2752 0.193726 42.7601C0.193726 27.1457 7.0197 16.6036 15.6058 9.97157Z" fill="white"/>
<path fill-rule="evenodd" clip-rule="evenodd" d="M15.514 9.85286C24.1175 3.20745 34.4797 0.474609 41.5448 0.474609C48.5912 0.474609 59.5772 2.6874 68.8135 9.07568C78.0701 15.478 85.5559 26.068 85.5559 42.7601C85.5559 56.1401 78.4567 68.5851 69.6429 78.6808C60.8243 88.7819 50.2458 96.5817 43.1852 100.679L42.9771 100.8L42.7729 100.672C35.6548 96.2365 24.9876 88.0307 16.0948 77.8136C7.21007 67.6058 0.0437012 55.3295 0.0437012 42.7601C0.0437012 27.0953 6.89437 16.5108 15.514 9.85286ZM41.5448 0.774609C34.5428 0.774609 24.2458 3.48738 15.6974 10.0903C7.14498 16.6963 0.343701 27.196 0.343701 42.7601C0.343701 55.2208 7.45288 67.4278 16.321 77.6166C25.1913 87.8077 35.8345 95.9949 42.9316 100.418L42.9826 100.45L43.0346 100.42C50.0712 96.3361 60.623 88.5564 69.4169 78.4835C78.2097 68.4119 85.2559 56.0353 85.2559 42.7601C85.2559 26.1744 77.8252 15.6733 68.6429 9.32241C59.4657 2.97499 48.5421 0.774609 41.5448 0.774609ZM41.5448 1.27447C34.648 1.27447 24.4597 3.9538 16.003 10.4859C7.56255 17.0054 0.843561 27.3637 0.843561 42.7601C0.843561 55.0397 7.85745 67.1313 16.6981 77.2884C25.4458 87.3388 35.9304 95.4357 42.9917 99.866C49.9874 95.7739 60.3738 88.0816 69.0403 78.1547C77.798 68.1234 84.756 55.8607 84.756 42.7601C84.756 26.3517 77.4171 15.9989 68.3586 9.73352C59.2797 3.45416 48.4602 1.27447 41.5448 1.27447ZM15.8196 10.2485C24.3313 3.67387 34.5849 0.974469 41.5448 0.974469C48.5093 0.974469 59.3913 3.16658 68.5292 9.48678C77.662 15.8035 85.056 26.2453 85.056 42.7601C85.056 55.9655 78.0451 68.2966 69.2663 78.352C60.5429 88.3442 50.0846 96.0767 43.0646 100.171L42.9863 100.216L42.9094 100.168C35.8268 95.7359 25.2738 87.5982 16.4718 77.4854C7.61464 67.3092 0.543561 55.1484 0.543561 42.7601C0.543561 27.263 7.31194 16.8199 15.8196 10.2485Z" fill="white"/>
<path fill-rule="evenodd" clip-rule="evenodd" d="M45.4941 40.1652L42.7999 31.8734L40.1057 40.1652H31.3872L38.4406 45.2898L35.7465 53.5816L42.7999 48.457L49.8533 53.5816L47.1591 45.2898L54.2126 40.1652H45.4941ZM51.7504 40.9652H44.9128L42.7999 34.4622L40.687 40.9652H33.8494L39.3811 44.9842L37.2682 51.4872L42.7999 47.4681L48.3316 51.4872L46.2187 44.9842L51.7504 40.9652Z" fill="white"/>
</svg>
