<svg width="102" height="101" viewBox="0 0 102 101" fill="none" xmlns="http://www.w3.org/2000/svg">
<path d="M81.803 31.0393C81.803 47.837 68.1859 61.4542 51.3882 61.4542C34.5906 61.4542 20.9734 47.837 20.9734 31.0393C20.9734 14.2417 34.5906 0.624512 51.3882 0.624512C68.1859 0.624512 81.803 14.2417 81.803 31.0393Z" fill="#E44853"/>
<path fill-rule="evenodd" clip-rule="evenodd" d="M51.3882 60.6533C67.7436 60.6533 81.0022 47.3947 81.0022 31.0393C81.0022 14.684 67.7436 1.42535 51.3882 1.42535C35.0329 1.42535 21.7742 14.684 21.7742 31.0393C21.7742 47.3947 35.0329 60.6533 51.3882 60.6533ZM51.3882 61.4542C68.1859 61.4542 81.803 47.837 81.803 31.0393C81.803 14.2417 68.1859 0.624512 51.3882 0.624512C34.5906 0.624512 20.9734 14.2417 20.9734 31.0393C20.9734 47.837 34.5906 61.4542 51.3882 61.4542Z" fill="white"/>
<path d="M102 100.625C102 91.7544 96.6679 83.2476 87.1763 76.9755C77.6848 70.7033 64.8114 67.1797 51.3883 67.1797C37.9652 67.1797 25.0918 70.7033 15.6003 76.9754C6.10868 83.2476 0.776369 91.7544 0.776367 100.625L51.3883 100.625H102Z" fill="#E44853"/>
<path fill-rule="evenodd" clip-rule="evenodd" d="M101.184 99.8237C100.874 91.5817 95.7807 83.6212 86.7348 77.6436C77.3964 71.4726 64.6832 67.9805 51.3883 67.9805C38.0934 67.9805 25.3803 71.4726 16.0418 77.6436C6.99588 83.6212 1.90265 91.5817 1.59228 99.8237L101.184 99.8237ZM101.986 99.8237C101.675 91.2437 96.3819 83.0586 87.1763 76.9755C77.6848 70.7033 64.8114 67.1797 51.3883 67.1797C37.9652 67.1797 25.0918 70.7033 15.6003 76.9754C6.3947 83.0586 1.10151 91.2437 0.790861 99.8237C0.781209 100.09 0.776367 100.357 0.776367 100.625L102 100.625C102 100.357 101.995 100.09 101.986 99.8237Z" fill="white"/>
</svg>
